<mxfile host="app.diagrams.net" modified="2023-08-11T07:46:42.084Z" agent="Mozilla/5.0 (Windows NT 10.0; Win64; x64) AppleWebKit/537.36 (KHTML, like Gecko) Chrome/115.0.0.0 Safari/537.36" etag="v8Rcd2-9FPJyc7JcvVhW" version="21.6.8" type="device">
  <diagram name="Page-1" id="8SYhal06fW0H2ZrSBO54">
    <mxGraphModel dx="1430" dy="778" grid="1" gridSize="10" guides="1" tooltips="1" connect="1" arrows="1" fold="1" page="1" pageScale="1" pageWidth="827" pageHeight="1169" math="0" shadow="0">
      <root>
        <mxCell id="0" />
        <mxCell id="1" parent="0" />
        <mxCell id="l2xY__gy9vU7Q2qfT4V2-8" value="User" style="shape=umlActor;verticalLabelPosition=bottom;verticalAlign=top;html=1;outlineConnect=0;" vertex="1" parent="1">
          <mxGeometry x="40" y="103" width="30" height="60" as="geometry" />
        </mxCell>
        <mxCell id="l2xY__gy9vU7Q2qfT4V2-10" value="" style="rounded=1;whiteSpace=wrap;html=1;" vertex="1" parent="1">
          <mxGeometry x="110" y="70" width="350" height="220" as="geometry" />
        </mxCell>
        <mxCell id="l2xY__gy9vU7Q2qfT4V2-11" value="ChatGPT API" style="text;html=1;strokeColor=none;fillColor=none;align=center;verticalAlign=middle;whiteSpace=wrap;rounded=0;" vertex="1" parent="1">
          <mxGeometry x="240" y="40" width="90" height="30" as="geometry" />
        </mxCell>
        <mxCell id="l2xY__gy9vU7Q2qfT4V2-27" style="edgeStyle=orthogonalEdgeStyle;rounded=0;orthogonalLoop=1;jettySize=auto;html=1;exitX=1;exitY=0.5;exitDx=0;exitDy=0;entryX=0.5;entryY=0;entryDx=0;entryDy=0;entryPerimeter=0;" edge="1" parent="1" source="l2xY__gy9vU7Q2qfT4V2-12" target="l2xY__gy9vU7Q2qfT4V2-17">
          <mxGeometry relative="1" as="geometry" />
        </mxCell>
        <mxCell id="l2xY__gy9vU7Q2qfT4V2-12" value="Send prompt" style="ellipse;whiteSpace=wrap;html=1;" vertex="1" parent="1">
          <mxGeometry x="140" y="98" width="90" height="70" as="geometry" />
        </mxCell>
        <mxCell id="l2xY__gy9vU7Q2qfT4V2-13" style="edgeStyle=orthogonalEdgeStyle;rounded=0;orthogonalLoop=1;jettySize=auto;html=1;exitX=0.5;exitY=0.5;exitDx=0;exitDy=0;exitPerimeter=0;endArrow=none;endFill=0;" edge="1" parent="1" source="l2xY__gy9vU7Q2qfT4V2-8" target="l2xY__gy9vU7Q2qfT4V2-12">
          <mxGeometry relative="1" as="geometry" />
        </mxCell>
        <mxCell id="l2xY__gy9vU7Q2qfT4V2-29" style="edgeStyle=orthogonalEdgeStyle;rounded=0;orthogonalLoop=1;jettySize=auto;html=1;entryX=0.5;entryY=1;entryDx=0;entryDy=0;" edge="1" parent="1" source="l2xY__gy9vU7Q2qfT4V2-17" target="l2xY__gy9vU7Q2qfT4V2-28">
          <mxGeometry relative="1" as="geometry">
            <Array as="points">
              <mxPoint x="185" y="380" />
            </Array>
          </mxGeometry>
        </mxCell>
        <mxCell id="l2xY__gy9vU7Q2qfT4V2-17" value="ChatGPT" style="shape=umlActor;verticalLabelPosition=bottom;verticalAlign=top;html=1;outlineConnect=0;" vertex="1" parent="1">
          <mxGeometry x="240" y="350" width="30" height="60" as="geometry" />
        </mxCell>
        <mxCell id="l2xY__gy9vU7Q2qfT4V2-18" value="Database" style="shape=umlActor;verticalLabelPosition=bottom;verticalAlign=top;html=1;outlineConnect=0;" vertex="1" parent="1">
          <mxGeometry x="390" y="350" width="30" height="60" as="geometry" />
        </mxCell>
        <mxCell id="l2xY__gy9vU7Q2qfT4V2-30" style="edgeStyle=orthogonalEdgeStyle;rounded=0;orthogonalLoop=1;jettySize=auto;html=1;exitX=0;exitY=0.5;exitDx=0;exitDy=0;" edge="1" parent="1" source="l2xY__gy9vU7Q2qfT4V2-28" target="l2xY__gy9vU7Q2qfT4V2-8">
          <mxGeometry relative="1" as="geometry">
            <Array as="points">
              <mxPoint x="120" y="235" />
              <mxPoint x="120" y="150" />
            </Array>
          </mxGeometry>
        </mxCell>
        <mxCell id="l2xY__gy9vU7Q2qfT4V2-28" value="Return response" style="ellipse;whiteSpace=wrap;html=1;" vertex="1" parent="1">
          <mxGeometry x="140" y="200" width="90" height="70" as="geometry" />
        </mxCell>
        <mxCell id="l2xY__gy9vU7Q2qfT4V2-38" style="edgeStyle=orthogonalEdgeStyle;rounded=0;orthogonalLoop=1;jettySize=auto;html=1;exitX=0.5;exitY=1;exitDx=0;exitDy=0;dashed=1;" edge="1" parent="1" source="l2xY__gy9vU7Q2qfT4V2-31" target="l2xY__gy9vU7Q2qfT4V2-37">
          <mxGeometry relative="1" as="geometry" />
        </mxCell>
        <mxCell id="l2xY__gy9vU7Q2qfT4V2-31" value="Generate Conversation" style="ellipse;whiteSpace=wrap;html=1;" vertex="1" parent="1">
          <mxGeometry x="360" y="98" width="90" height="70" as="geometry" />
        </mxCell>
        <mxCell id="l2xY__gy9vU7Q2qfT4V2-32" value="" style="endArrow=none;dashed=1;html=1;rounded=0;entryX=1;entryY=0.5;entryDx=0;entryDy=0;startArrow=open;startFill=0;" edge="1" parent="1" source="l2xY__gy9vU7Q2qfT4V2-31" target="l2xY__gy9vU7Q2qfT4V2-28">
          <mxGeometry width="50" height="50" relative="1" as="geometry">
            <mxPoint x="90" y="340" as="sourcePoint" />
            <mxPoint x="140" y="290" as="targetPoint" />
          </mxGeometry>
        </mxCell>
        <mxCell id="l2xY__gy9vU7Q2qfT4V2-35" value="&amp;lt;&amp;lt;include&amp;gt;&amp;gt;" style="edgeLabel;html=1;align=center;verticalAlign=middle;resizable=0;points=[];" vertex="1" connectable="0" parent="l2xY__gy9vU7Q2qfT4V2-32">
          <mxGeometry x="-0.1632" y="3" relative="1" as="geometry">
            <mxPoint x="-5" y="-3" as="offset" />
          </mxGeometry>
        </mxCell>
        <mxCell id="l2xY__gy9vU7Q2qfT4V2-33" value="" style="endArrow=none;dashed=1;html=1;rounded=0;startArrow=open;startFill=0;" edge="1" parent="1" source="l2xY__gy9vU7Q2qfT4V2-31" target="l2xY__gy9vU7Q2qfT4V2-12">
          <mxGeometry width="50" height="50" relative="1" as="geometry">
            <mxPoint x="333" y="195" as="sourcePoint" />
            <mxPoint x="240" y="225" as="targetPoint" />
          </mxGeometry>
        </mxCell>
        <mxCell id="l2xY__gy9vU7Q2qfT4V2-34" value="&amp;lt;&amp;lt;include&amp;gt;&amp;gt;" style="edgeLabel;html=1;align=center;verticalAlign=middle;resizable=0;points=[];" vertex="1" connectable="0" parent="l2xY__gy9vU7Q2qfT4V2-33">
          <mxGeometry x="-0.1077" relative="1" as="geometry">
            <mxPoint as="offset" />
          </mxGeometry>
        </mxCell>
        <mxCell id="l2xY__gy9vU7Q2qfT4V2-40" style="edgeStyle=orthogonalEdgeStyle;rounded=0;orthogonalLoop=1;jettySize=auto;html=1;exitX=0.5;exitY=1;exitDx=0;exitDy=0;" edge="1" parent="1" source="l2xY__gy9vU7Q2qfT4V2-37" target="l2xY__gy9vU7Q2qfT4V2-18">
          <mxGeometry relative="1" as="geometry" />
        </mxCell>
        <mxCell id="l2xY__gy9vU7Q2qfT4V2-37" value="Store Conversation" style="ellipse;whiteSpace=wrap;html=1;" vertex="1" parent="1">
          <mxGeometry x="360" y="210" width="90" height="70" as="geometry" />
        </mxCell>
      </root>
    </mxGraphModel>
  </diagram>
</mxfile>
